Coordinates
version=1
nRows=30
nColumns=38
inDegrees=no

Units are S.I. units (second, meters, Newtons, ...)
If the header above contains a line with 'inDegrees', this indicates whether rotational values are in degrees (yes) or radians (no).

endheader
time	pelvis_tilt	pelvis_list	pelvis_rotation	pelvis_tx	pelvis_ty	pelvis_tz	hip_flexion_r	hip_adduction_r	hip_rotation_r	knee_angle_r	ankle_angle_r	subtalar_angle_r	mtp_angle_r	hip_flexion_l	hip_adduction_l	hip_rotation_l	knee_angle_l	ankle_angle_l	subtalar_angle_l	mtp_angle_l	lumbar_extension	lumbar_bending	lumbar_rotation	arm_flex_r	arm_add_r	arm_rot_r	elbow_flex_r	pro_sup_r	wrist_flex_r	wrist_dev_r	arm_flex_l	arm_add_l	arm_rot_l	elbow_flex_l	pro_sup_l	wrist_flex_l	wrist_dev_l
0	2.54084	1.50496	2.14473	0.638921	1.84141	0.95475	-0.0529026	-0.0429719	-0.0908734	0.023639	0.0442911	0	0	-0.0617951	0.00892094	-0.121224	0.0147942	0.0571187	0	0	0.124386	-0.0162222	-0.0439225	-0.0834482	-0.0970434	0.0824994	0.391125	1.5708	0	0	-0.103893	-0.160372	0.470633	0.53829	1.25457	0	0
0.01	2.53	1.50564	2.15623	0.639029	1.84131	0.954787	-0.0537576	-0.0433079	-0.0917328	0.0244556	0.0449583	0	0	-0.063233	0.00930732	-0.120076	0.0139391	0.0566282	0	0	0.122221	-0.0162022	-0.0445924	-0.0829902	-0.0960341	0.0772996	0.389669	1.5708	0	0	-0.103628	-0.15894	0.464745	0.536875	1.25506	0	0
0.02	2.52078	1.50594	2.16584	0.63915	1.84124	0.954794	-0.0541451	-0.0439708	-0.0919464	0.0252604	0.0455735	0	0	-0.0639522	0.00984091	-0.119784	0.0138439	0.056629	0	0	0.12061	-0.0165796	-0.0451845	-0.0830184	-0.0957989	0.0757467	0.389498	1.5708	0	0	-0.103301	-0.158509	0.462609	0.537441	1.25513	0	0
0.03	2.5123	1.50736	2.17518	0.639281	1.84112	0.954909	-0.0580252	-0.0436432	-0.088579	0.0212481	0.0431393	0	0	-0.0658521	0.00952595	-0.119191	0.0133722	0.0565276	0	0	0.118057	-0.0164639	-0.0463275	-0.0826709	-0.0954836	0.0736657	0.38853	1.5708	0	0	-0.102701	-0.157744	0.459309	0.537682	1.25651	0	0
0.04	2.46047	1.50032	2.22111	0.639787	1.84185	0.953875	-0.0446317	-0.0568194	-0.0835637	0.0427595	0.0625943	0	0	-0.0611026	0.0190099	-0.1226	0.0140189	0.0571181	0	0	0.126201	-0.0207769	-0.0624337	-0.0252296	-0.0728074	0.00120602	0.274122	1.5708	0	0	-0.11763	-0.15382	0.426799	0.544596	1.25646	0	0
0.05	2.46266	1.49935	2.21987	0.639766	1.84158	0.953791	-0.0445501	-0.056836	-0.0840876	0.0411888	0.061407	0	0	-0.0604621	0.0193374	-0.121849	0.0139049	0.0570974	0	0	0.120193	-0.0203867	-0.0402209	-0.0425564	-0.0699715	-0.0569522	0.294967	1.5708	0	0	-0.1013	-0.157347	0.45964	0.541699	1.24201	0	0
0.06	2.45649	1.49985	2.22659	0.639874	1.84148	0.953823	-0.0457343	-0.0566945	-0.0841364	0.039875	0.0601492	0	0	-0.0613904	0.0194987	-0.121401	0.0136591	0.0571314	0	0	0.118571	-0.0206504	-0.0403586	-0.0426794	-0.06948	-0.063077	0.295879	1.5708	0	0	-0.10065	-0.157771	0.459362	0.542957	1.23714	0	0
0.07	2.45102	1.50029	2.23264	0.639978	1.84139	0.95385	-0.0468855	-0.0565847	-0.084198	0.038499	0.0589487	0	0	-0.0622814	0.0196245	-0.120812	0.0132914	0.0570749	0	0	0.117036	-0.0209959	-0.0409415	-0.0424825	-0.0690892	-0.068967	0.297626	1.5708	0	0	-0.100456	-0.158402	0.458905	0.54466	1.23237	0	0
0.08	2.44588	1.50069	2.23832	0.640041	1.84128	0.953864	-0.0478883	-0.0564027	-0.0845621	0.0374131	0.0577951	0	0	-0.0631341	0.0197044	-0.120379	0.0129059	0.0569851	0	0	0.115669	-0.0212599	-0.0415252	-0.0425077	-0.0688512	-0.0707557	0.297679	1.5708	0	0	-0.100367	-0.159247	0.458988	0.546398	1.22694	0	0
0.09	2.44144	1.50111	2.24347	0.640105	1.84116	0.953874	-0.0490269	-0.0561502	-0.0851061	0.0361616	0.0566935	0	0	-0.0640154	0.0197218	-0.119819	0.0124445	0.0568592	0	0	0.114498	-0.0214187	-0.0421101	-0.0425924	-0.0686358	-0.072424	0.296845	1.5708	0	0	-0.100209	-0.160265	0.460138	0.547826	1.22029	0	0
0.1	2.43176	1.50212	2.25384	0.640184	1.84102	0.953952	-0.0515114	-0.0557531	-0.0849437	0.0337844	0.0548965	0	0	-0.0661145	0.019718	-0.119029	0.0110437	0.0561601	0	0	0.11246	-0.0214572	-0.0426815	-0.0423925	-0.0685671	-0.0781121	0.298998	1.5708	0	0	-0.0999448	-0.161363	0.461762	0.549338	1.21201	0	0
0.11	2.38471	1.51309	2.29301	0.637978	1.83974	0.954727	-0.0664667	-0.047285	-0.0779562	0.0264424	0.0503519	0	0	-0.0888102	0.0133731	-0.105426	0	0.0495661	0	0	0.102552	-0.017812	-0.035992	-0.0434177	-0.0664013	-0.0765049	0.300797	1.5708	0	0	-0.102205	-0.165754	0.461923	0.554268	1.20432	0	0
0.12	2.43808	1.50254	2.24929	0.640286	1.84081	0.953945	-0.0525633	-0.0545391	-0.0873826	0.0317979	0.0532477	0	0	-0.0663701	0.0189538	-0.117772	0.0109797	0.0566572	0	0	0.111323	-0.0213329	-0.045258	-0.0437118	-0.0699572	-0.0695437	0.304414	1.5708	0	0	-0.100687	-0.163128	0.462592	0.552016	1.19441	0	0
0.13	2.44187	1.50269	2.24654	0.640373	1.84082	0.953924	-0.0529864	-0.0539655	-0.0883411	0.0307228	0.0523344	0	0	-0.0660902	0.0186241	-0.11691	0.0112052	0.0567274	0	0	0.11067	-0.0212717	-0.0467918	-0.0445195	-0.0711838	-0.0591882	0.307317	1.5708	0	0	-0.100917	-0.164001	0.463377	0.553491	1.1858	0	0
0.14	2.44659	1.5024	2.24216	0.6404	1.84074	0.953886	-0.0531343	-0.0536738	-0.0886719	0.029404	0.0515368	0	0	-0.0657552	0.0185901	-0.117018	0.0110037	0.0566551	0	0	0.110812	-0.0214061	-0.0469982	-0.0434647	-0.0702355	-0.0658084	0.304989	1.5708	0	0	-0.101137	-0.163938	0.460076	0.553209	1.19285	0	0
0.15	2.44989	1.50216	2.23844	0.640357	1.84055	0.953866	-0.053945	-0.0534151	-0.0876775	0.0269891	0.0501913	0	0	-0.0663808	0.0186491	-0.117529	0.00959937	0.0562058	0	0	0.111113	-0.0214277	-0.0474612	-0.0428227	-0.0701528	-0.0657752	0.304596	1.5708	0	0	-0.102701	-0.160999	0.441787	0.550191	1.23317	0	0
0.16	2.45458	1.50197	2.23366	0.640324	1.84041	0.953843	-0.0546013	-0.0529718	-0.087549	0.0249823	0.0490479	0	0	-0.0667324	0.0185226	-0.117683	0.00855891	0.0559295	0	0	0.111421	-0.0214053	-0.0477054	-0.0429235	-0.0704884	-0.0624235	0.305861	1.5708	0	0	-0.103741	-0.160738	0.437156	0.549769	1.23732	0	0
0.17	2.45994	1.50171	2.22853	0.640303	1.84029	0.953805	-0.0552311	-0.052479	-0.0879507	0.0229913	0.0479111	0	0	-0.0667926	0.0183489	-0.11757	0.00777657	0.0556852	0	0	0.111939	-0.0215786	-0.0472221	-0.0429995	-0.0700862	-0.0631139	0.305971	1.5708	0	0	-0.104043	-0.163368	0.447682	0.552298	1.20404	0	0
0.18	2.50183	1.5012	2.18548	0.64058	1.84028	0.953858	-0.0529313	-0.050598	-0.0866514	0.022178	0.0456994	0	0	-0.064864	0.01676	-0.118581	0.00709469	0.0551754	0	0	0.118403	-0.0185924	-0.061572	-0.0323796	-0.0735483	-0.0228417	0.293384	1.5708	0	0	-0.093942	-0.128022	0.361076	0.480215	1.29691	0	0
0.19	2.50453	1.49804	2.18243	0.640569	1.84026	0.953644	-0.0506305	-0.0524037	-0.0860604	0.0207661	0.0453269	0	0	-0.0621077	0.0187421	-0.118312	0.00675926	0.054445	0	0	0.117421	-0.0186807	-0.0487322	-0.0424043	-0.0736111	-0.0399898	0.307617	1.5708	0	0	-0.0866864	-0.129019	0.377111	0.479832	1.29041	0	0
0.2	2.51596	1.4988	2.17146	0.6403	1.84003	0.95364	-0.0529388	-0.0503654	-0.0864899	0.0170265	0.0434461	0	0	-0.0630725	0.0170375	-0.118654	0.00576679	0.0545789	0	0	0.117232	-0.0181715	-0.0483937	-0.0427093	-0.0725335	-0.0431007	0.307448	1.5708	0	0	-0.0873237	-0.129912	0.377601	0.480773	1.29275	0	0
0.21	2.52305	1.49867	2.16427	0.640204	1.83992	0.953598	-0.0540911	-0.0496341	-0.0862461	0.0139975	0.041914	0	0	-0.0632672	0.0165756	-0.118972	0.0048563	0.0543917	0	0	0.1174	-0.0180611	-0.0475668	-0.0424928	-0.0719772	-0.0448568	0.306517	1.5708	0	0	-0.087828	-0.130042	0.376364	0.48077	1.29306	0	0
0.22	2.52928	1.49854	2.15796	0.640103	1.83979	0.953552	-0.0552061	-0.0489661	-0.086007	0.0111791	0.0406787	0	0	-0.0634412	0.0161609	-0.119215	0.00410793	0.0543125	0	0	0.117627	-0.0180225	-0.0467643	-0.042554	-0.0714801	-0.0445861	0.306182	1.5708	0	0	-0.0881767	-0.12994	0.374975	0.480045	1.29217	0	0
0.23	2.53155	1.49864	2.15571	0.640016	1.83966	0.953527	-0.057104	-0.048401	-0.0849926	0.00759567	0.0389476	0	0	-0.06416	0.0159045	-0.119138	0.00302587	0.0540013	0	0	0.117438	-0.0180145	-0.0464621	-0.0425924	-0.071537	-0.0409969	0.306539	1.5708	0	0	-0.0889282	-0.130096	0.374597	0.480313	1.28436	0	0
0.24	2.53366	1.49873	2.15367	0.639924	1.83953	0.9535	-0.0586141	-0.0479104	-0.0848616	0.00488498	0.037699	0	0	-0.0647472	0.0156603	-0.119057	0.00216485	0.0537671	0	0	0.117198	-0.017994	-0.0467646	-0.0418774	-0.0717217	-0.0366084	0.30582	1.5708	0	0	-0.090258	-0.129802	0.370752	0.480812	1.28199	0	0
0.25	2.5395	1.49996	2.1471	0.63996	1.83947	0.953534	-0.060402	-0.0468645	-0.0841027	0.00290199	0.0365381	0	0	-0.0662373	0.0147774	-0.119873	0.00124494	0.0538452	0	0	0.120234	-0.0187814	-0.0585655	-0.0309332	-0.0717959	-0.0145765	0.290781	1.5708	0	0	-0.0993912	-0.129029	0.35731	0.483535	1.27664	0	0
0.26	2.53931	1.49896	2.14782	0.639712	1.83924	0.953439	-0.0610375	-0.0469227	-0.0846924	0.000534125	0.0359032	0	0	-0.0658077	0.0149582	-0.119263	0.000808001	0.05369	0	0	0.117003	-0.0179561	-0.0457105	-0.0410584	-0.070813	-0.0381977	0.304752	1.5708	0	0	-0.0915117	-0.129273	0.367016	0.479733	1.28354	0	0
0.27	2.54268	1.49658	2.14277	0.639801	1.83934	0.953271	-0.0579227	-0.0486355	-0.0827792	0.00136981	0.0362878	0	0	-0.0634912	0.0166283	-0.119873	0.00073547	0.053275	0	0	0.118803	-0.018508	-0.0425697	-0.0408645	-0.0705807	-0.0442095	0.304846	1.5708	0	0	-0.0909979	-0.128602	0.369384	0.478112	1.28079	0	0
0.28	2.52795	1.50909	2.14984	0.637227	1.83785	0.954055	-0.0741641	-0.0384293	-0.0777147	0	0.0325448	0	0	-0.0868528	0.00818323	-0.107226	0	0.048484	0	0	0.108833	-0.0142565	-0.0351608	-0.041107	-0.0666028	-0.0487659	0.303201	1.5708	0	0	-0.0936587	-0.132563	0.370339	0.481388	1.27765	0	0
0.29	2.54725	1.49879	2.13906	0.639398	1.83887	0.953337	-0.0621708	-0.045919	-0.0842978	0	0.0347223	0	0	-0.0665949	0.0142802	-0.119452	2.43448e-08	0.0535174	0	0	0.117067	-0.0180883	-0.0419963	-0.0394979	-0.0682254	-0.0546699	0.301757	1.5708	0	0	-0.0917891	-0.129592	0.373974	0.478492	1.26947	0	0
